<svg width="26" height="26" viewBox="0 0 26 26" fill="none" xmlns="http://www.w3.org/2000/svg">
<path fill-rule="evenodd" clip-rule="evenodd" d="M11.9166 4.33317C7.72847 4.33317 4.33329 7.72834 4.33329 11.9165C4.33329 16.1047 7.72847 19.4998 11.9166 19.4998C16.1048 19.4998 19.5 16.1047 19.5 11.9165C19.5 7.72834 16.1048 4.33317 11.9166 4.33317ZM2.16663 11.9165C2.16663 6.53173 6.53185 2.1665 11.9166 2.1665C17.3014 2.1665 21.6666 6.53173 21.6666 11.9165C21.6666 17.3013 17.3014 21.6665 11.9166 21.6665C6.53185 21.6665 2.16663 17.3013 2.16663 11.9165Z" fill="white"/>
<path fill-rule="evenodd" clip-rule="evenodd" d="M17.2715 17.2714C17.6946 16.8483 18.3805 16.8483 18.8036 17.2714L23.5161 21.9839C23.9392 22.407 23.9392 23.0929 23.5161 23.516C23.093 23.939 22.4071 23.939 21.984 23.516L17.2715 18.8035C16.8485 18.3804 16.8485 17.6945 17.2715 17.2714Z" fill="white"/>
</svg>
