<svg width="55" height="37" viewBox="0 0 55 37" fill="none" xmlns="http://www.w3.org/2000/svg">
<g filter="url(#filter0_d_1_16)">
<mask id="path-1-inside-1_1_16" fill="white">
<path fill-rule="evenodd" clip-rule="evenodd" d="M2 0C0.89543 0 0 0.89543 0 2V28C0 29.1046 0.895432 30 2 30H20.7656L27.5 36.1018L34.2344 30H53C54.1046 30 55 29.1046 55 28V2C55 0.895431 54.1046 0 53 0H2Z"/>
</mask>
<path fill-rule="evenodd" clip-rule="evenodd" d="M2 0C0.89543 0 0 0.89543 0 2V28C0 29.1046 0.895432 30 2 30H20.7656L27.5 36.1018L34.2344 30H53C54.1046 30 55 29.1046 55 28V2C55 0.895431 54.1046 0 53 0H2Z" fill="white"/>
<path d="M20.7656 30L21.437 29.2589L21.1513 29H20.7656V30ZM27.5 36.1018L26.8286 36.8428L27.5 37.4512L28.1714 36.8428L27.5 36.1018ZM34.2344 30V29H33.8487L33.563 29.2589L34.2344 30ZM1 2C1 1.44772 1.44772 1 2 1V-1C0.343146 -1 -1 0.343146 -1 2H1ZM1 28V2H-1V28H1ZM2 29C1.44772 29 1 28.5523 1 28H-1C-1 29.6569 0.343148 31 2 31V29ZM20.7656 29H2V31H20.7656V29ZM28.1714 35.3607L21.437 29.2589L20.0942 30.7411L26.8286 36.8428L28.1714 35.3607ZM33.563 29.2589L26.8286 35.3607L28.1714 36.8428L34.9058 30.7411L33.563 29.2589ZM53 29H34.2344V31H53V29ZM54 28C54 28.5523 53.5523 29 53 29V31C54.6569 31 56 29.6569 56 28H54ZM54 2V28H56V2H54ZM53 1C53.5523 1 54 1.44772 54 2H56C56 0.343146 54.6569 -1 53 -1V1ZM2 1H53V-1H2V1Z" fill="#D3D3D3" mask="url(#path-1-inside-1_1_16)"/>
</g>
<defs>
<filter id="filter0_d_1_16" x="-2" y="0" width="59" height="41.1018" filterUnits="userSpaceOnUse" color-interpolation-filters="sRGB">
<feFlood flood-opacity="0" result="BackgroundImageFix"/>
<feColorMatrix in="SourceAlpha" type="matrix" values="0 0 0 0 0 0 0 0 0 0 0 0 0 0 0 0 0 0 127 0" result="hardAlpha"/>
<feOffset dy="3"/>
<feGaussianBlur stdDeviation="1"/>
<feColorMatrix type="matrix" values="0 0 0 0 0 0 0 0 0 0 0 0 0 0 0 0 0 0 0.1 0"/>
<feBlend mode="normal" in2="BackgroundImageFix" result="effect1_dropShadow_1_16"/>
<feBlend mode="normal" in="SourceGraphic" in2="effect1_dropShadow_1_16" result="shape"/>
</filter>
</defs>
</svg>
