<svg width="14" height="13" viewBox="0 0 14 13" fill="none" xmlns="http://www.w3.org/2000/svg">
<path id="Vector" d="M4.02872 0.264893C4.29534 0.264893 4.541 0.409492 4.67043 0.642615L5.56822 2.25985C5.68577 2.4716 5.69131 2.72772 5.58298 2.94435L4.71807 4.6742C4.71807 4.6742 4.96872 5.96283 6.01771 7.01182C7.06673 8.06081 8.35103 8.30714 8.35103 8.30714L10.0806 7.44237C10.2974 7.33396 10.5537 7.33958 10.7655 7.45735L12.3873 8.35903C12.6202 8.48854 12.7646 8.73405 12.7646 9.00051V10.8624C12.7646 11.8106 11.8839 12.4954 10.9855 12.1923C9.14034 11.5697 6.27614 10.3842 4.46074 8.5688C2.64534 6.75339 1.45988 3.88919 0.837273 2.04402C0.534136 1.14561 1.21896 0.264893 2.16712 0.264893H4.02872Z" fill="#09A284" fill-opacity="0.6" stroke="black" stroke-width="0.5" stroke-linejoin="round"/>
</svg>
