<svg width="30" height="32" viewBox="0 0 30 32" fill="none" xmlns="http://www.w3.org/2000/svg">
<ellipse cx="15.0635" cy="15.9788" rx="14.3809" ry="15.9788" fill="#F7F7F7" fill-opacity="0.8"/>
<path d="M14.7269 24.7288C13.5594 24.7288 12.4794 24.539 11.487 24.1596C10.5092 23.7656 9.65549 23.2183 8.92579 22.5178C8.21069 21.8173 7.64882 20.9927 7.24019 20.0441C6.84615 19.0955 6.64913 18.0593 6.64913 16.9356C6.64913 15.8119 6.84615 14.7757 7.24019 13.8271C7.64882 12.8785 8.21798 12.0539 8.94768 11.3534C9.67738 10.6529 10.5311 10.1129 11.5089 9.73347C12.5013 9.33943 13.5813 9.14241 14.7488 9.14241C15.9163 9.14241 16.9817 9.32484 17.9449 9.68969C18.9227 10.0545 19.7545 10.6091 20.4404 11.3534L19.4334 12.3823C18.7913 11.7401 18.0835 11.2804 17.31 11.0031C16.5365 10.7259 15.7047 10.5872 14.8145 10.5872C13.8658 10.5872 12.9902 10.7477 12.1875 11.0688C11.3995 11.3753 10.7063 11.8204 10.1079 12.4042C9.52414 12.9733 9.06443 13.6446 8.72877 14.4181C8.40771 15.177 8.24717 16.0162 8.24717 16.9356C8.24717 17.8404 8.40771 18.6796 8.72877 19.453C9.06443 20.2265 9.52414 20.9051 10.1079 21.4889C10.7063 22.0581 11.3995 22.5032 12.1875 22.8242C12.9902 23.1307 13.8585 23.284 14.7926 23.284C15.6682 23.284 16.4928 23.1526 17.2662 22.8899C18.0543 22.6272 18.7767 22.1821 19.4334 21.5546L20.3529 22.7805C19.6232 23.4226 18.7694 23.9115 17.7916 24.2472C16.8138 24.5682 15.7922 24.7288 14.7269 24.7288ZM18.7986 22.5834V16.9356H20.3529V22.7805L18.7986 22.5834Z" fill="black"/>
</svg>
