<svg width="20" height="14" viewBox="0 0 30 21" fill="none" xmlns="http://www.w3.org/2000/svg">
<path fill-rule="evenodd" clip-rule="evenodd" d="M19.1966 8.11328C19.1966 11.557 16.4049 14.3487 12.9611 14.3487C9.51737 14.3487 6.72567 11.557 6.72567 8.11328C6.72567 4.66953 9.51737 1.87783 12.9611 1.87783C16.4049 1.87783 19.1966 4.66953 19.1966 8.11328ZM17.9364 14.2845C16.5761 15.3826 14.8454 16.04 12.9611 16.04C8.58329 16.04 5.03436 12.4911 5.03436 8.11328C5.03436 3.73545 8.58329 0.186523 12.9611 0.186523C17.3389 0.186523 20.8879 3.73545 20.8879 8.11328C20.8879 9.99757 20.2304 11.7283 19.1323 13.0886L24.718 18.6742C25.0482 19.0045 25.0482 19.5399 24.718 19.8702C24.3877 20.2004 23.8523 20.2004 23.522 19.8702L17.9364 14.2845Z" fill="#AAAAAA"/>
</svg>
