<svg width="26" height="27" viewBox="0 0 26 27" fill="none" xmlns="http://www.w3.org/2000/svg">
<path d="M11.0287 8.01465C11.2953 8.01465 11.541 8.15925 11.6704 8.39237L12.5682 10.0096C12.6858 10.2214 12.6913 10.4775 12.583 10.6941L11.7181 12.424C11.7181 12.424 11.9687 13.7126 13.0177 14.7616C14.0667 15.8106 15.351 16.0569 15.351 16.0569L17.0806 15.1921C17.2974 15.0837 17.5537 15.0893 17.7655 15.2071L19.3873 16.1088C19.6202 16.2383 19.7646 16.4838 19.7646 16.7503V18.6122C19.7646 19.5603 18.8839 20.2452 17.9855 19.942C16.1403 19.3194 13.2761 18.134 11.4607 16.3186C9.64534 14.5032 8.45988 11.6389 7.83727 9.79378C7.53414 8.89536 8.21896 8.01465 9.16712 8.01465H11.0287Z" fill="#09A284" fill-opacity="0.6" stroke="black" stroke-width="0.5" stroke-linejoin="round"/>
</svg>
