<svg width="15" height="15" viewBox="0 0 15 15" fill="none" xmlns="http://www.w3.org/2000/svg">
<g clip-path="url(#clip0_1459_1150)">
<path fill-rule="evenodd" clip-rule="evenodd" d="M7.7023 0.833252C7.92433 0.833252 8.1271 0.959294 8.22538 1.15839L9.89228 4.53536L13.62 5.08022C13.8397 5.11233 14.0221 5.26633 14.0905 5.4775C14.159 5.68867 14.1017 5.9204 13.9426 6.07529L11.2458 8.70205L11.8822 12.413C11.9198 12.6318 11.8298 12.853 11.6501 12.9835C11.4705 13.114 11.2323 13.1312 11.0358 13.0279L7.7023 11.2748L4.36881 13.0279C4.17228 13.1312 3.93411 13.114 3.75445 12.9835C3.5748 12.853 3.48482 12.6318 3.52236 12.413L4.15883 8.70205L1.46195 6.07529C1.30293 5.9204 1.2456 5.68867 1.31407 5.4775C1.38254 5.26633 1.56494 5.11233 1.7846 5.08022L5.51231 4.53536L7.17922 1.15839C7.27749 0.959294 7.48027 0.833252 7.7023 0.833252ZM7.7023 2.73448L6.42288 5.32645C6.33798 5.49844 6.17395 5.61771 5.98416 5.64545L3.1222 6.06377L5.19264 8.08038C5.33024 8.21439 5.39304 8.40755 5.36057 8.59686L4.87207 11.4451L7.43079 10.0995C7.60076 10.0101 7.80384 10.0101 7.97381 10.0995L10.5325 11.4451L10.044 8.59686C10.0116 8.40755 10.0744 8.21439 10.212 8.08038L12.2824 6.06377L9.42043 5.64545C9.23064 5.61771 9.06662 5.49844 8.98172 5.32645L7.7023 2.73448Z" fill="black"/>
</g>
<defs>
<clipPath id="clip0_1459_1150">
<rect width="14" height="14" fill="white" transform="translate(0.702301 0.25)"/>
</clipPath>
</defs>
</svg>
