<svg width="74" height="96" viewBox="0 0 74 96" fill="none" xmlns="http://www.w3.org/2000/svg">
<g opacity="0.8">
<path fill-rule="evenodd" clip-rule="evenodd" d="M64 33.5C64 48.4117 51.9117 60.5 37 60.5C22.0883 60.5 10 48.4117 10 33.5C10 18.5883 22.0883 6.5 37 6.5C51.9117 6.5 64 18.5883 64 33.5ZM66 33.5C66 49.5163 53.0163 62.5 37 62.5C20.9837 62.5 8 49.5163 8 33.5C8 17.4837 20.9837 4.5 37 4.5C53.0163 4.5 66 17.4837 66 33.5ZM41.8055 26.6649L36.5085 11.3813L31.2115 26.6649H14.07L27.9378 36.1107L22.6408 51.3943L36.5085 41.9485L50.3763 51.3943L45.0792 36.1107L58.947 26.6649H41.8055Z" fill="#FBBC05"/>
<rect x="1" y="67.5" width="72" height="24" rx="8" fill="#FFE7A2"/>
<rect x="0.5" y="67" width="73" height="25" rx="8.5" stroke="black" stroke-opacity="0.2"/>
<path d="M23.916 86.695C22.356 86.695 21.021 86.065 20.061 85.06L20.901 84.115C21.681 84.94 22.791 85.48 23.931 85.48C25.371 85.48 26.241 84.76 26.241 83.68C26.241 82.555 25.446 82.195 24.411 81.73L22.821 81.04C21.801 80.605 20.586 79.825 20.586 78.22C20.586 76.525 22.056 75.295 24.051 75.295C25.356 75.295 26.511 75.85 27.291 76.66L26.556 77.545C25.881 76.915 25.071 76.51 24.051 76.51C22.806 76.51 21.996 77.14 21.996 78.13C21.996 79.195 22.956 79.6 23.811 79.96L25.386 80.635C26.661 81.19 27.651 81.94 27.651 83.575C27.651 85.315 26.211 86.695 23.916 86.695ZM31.7112 80.35L31.1712 82.03H34.5012L33.9762 80.35C33.5712 79.105 33.2262 77.905 32.8662 76.63H32.8062C32.4612 77.92 32.1012 79.105 31.7112 80.35ZM28.3512 86.5L32.0862 75.49H33.6312L37.3662 86.5H35.8962L34.8462 83.14H30.8262L29.7612 86.5H28.3512ZM40.7228 86.5L37.2128 75.49H38.6678L40.4528 81.46C40.8428 82.75 41.0978 83.8 41.5178 85.09H41.5778C41.9828 83.8 42.2528 82.75 42.6428 81.46L44.4128 75.49H45.8228L42.3278 86.5H40.7228ZM47.3257 86.5V75.49H53.6707V76.675H48.7207V80.125H52.8907V81.31H48.7207V85.315H53.8357V86.5H47.3257Z" fill="black"/>
</g>
</svg>
