<svg width="43" height="42" viewBox="0 0 43 42" fill="none" xmlns="http://www.w3.org/2000/svg">
<path d="M9.2704 33.5405C9.57114 28.9805 13.3651 25.375 18.0012 25.375H25.0012C29.6311 25.375 33.4212 28.971 33.7308 33.5224M21.501 38.5C31.166 38.5 39.001 30.665 39.001 21C39.001 11.335 31.166 3.5 21.501 3.5C11.836 3.5 4.00098 11.335 4.00098 21C4.00098 30.665 11.836 38.5 21.501 38.5ZM21.501 20.1249C23.9172 20.1249 25.876 18.1662 25.876 15.7499C25.876 13.3337 23.9172 11.3749 21.501 11.3749C19.0848 11.3749 17.126 13.3337 17.126 15.7499C17.126 18.1662 19.0848 20.1249 21.501 20.1249Z" stroke="black" stroke-opacity="0.79" stroke-width="2.5" stroke-linecap="round" stroke-linejoin="round"/>
</svg>
